<svg xmlns="http://www.w3.org/2000/svg" version="1.0" preserveAspectRatio="xMidYMid meet" viewBox="37.12 40.33 285.64 179.58">
  <g transform="translate(0.000000,252.000000) scale(0.100000,-0.100000)" fill="#fff">
    <path d="M1155 2102 c-71 -25 -127 -64 -169 -115 -42 -52 -575 -1124 -600 -1206 -50 -168 30 -346 193 -427 49 -25 67 -28 146 -28 78 0 98 3 152 28 108 49 147 101 275 366 l112 230 126 -249 c69 -137 134 -259 145 -271 131 -145 404 -143 531 3 20 23 89 148 154 277 l118 235 121 -243 c91 -182 131 -252 162 -282 132 -128 348 -133 483 -9 105 96 147 231 111 355 -9 32 -144 316 -300 631 -311 629 -316 636 -433 691 -49 23 -70 27 -147 26 -114 0 -182 -29 -258 -107 -44 -44 -70 -90 -162 -280 -60 -125 -112 -227 -115 -227 -3 0 -58 107 -124 237 -135 270 -169 314 -272 352 -82 31 -185 37 -249 13z m210 -83 c98 -36 117 -64 285 -399 l153 -304 156 311 c86 171 166 322 179 336 39 42 111 71 185 75 60 4 75 1 132 -27 38 -19 76 -47 93 -69 16 -20 78 -133 136 -251 87 -174 102 -210 80 -192 -43 34 -100 45 -152 30 -87 -24 -103 -50 -350 -552 -213 -431 -232 -465 -279 -508 -80 -71 -180 -89 -286 -49 -97 36 -109 55 -359 555 -127 253 -241 474 -254 491 -13 18 -44 42 -69 54 -56 27 -115 22 -169 -15 -35 -24 -34 -21 70 188 59 117 120 229 136 250 71 89 197 120 313 76z"></path>
  </g>
</svg>